 <!-- <svg class="transition duration-300 ease-in-out delay-150" xmlns="http://www.w3.org/2000/svg" viewBox="0 0 1440 400" id="svg" width="100%" height="100%">
        <path transform="rotate(-180 720 200)" class="transition-all duration-300 ease-in-out delay-150" fill="#151418ff" stroke-width="0" stroke="none" d="M 0,400 C 0,400 0,200 0,200 C 109.28571428571428,173 218.57142857142856,146 327,141 C 435.42857142857144,136 542.9999999999999,153 686,185 C 829.0000000000001,217 1007.4285714285713,264 1139,269 C 1270.5714285714287,274 1355.2857142857142,237 1440,200 C 1440,200 1440,400 1440,400 Z"></path>
      </svg> -->

      <svg xmlns="http://www.w3.org/2000/svg" version="1.1" xmlns:xlink="http://www.w3.org/1999/xlink" xmlns:svgjs="http://svgjs.com/svgjs" width="1920" height="1080" preserveAspectRatio="none" viewBox="0 0 1920 1080">
    <g mask="url(&quot;#SvgjsMask1042&quot;)" fill="none">
        <path d="M 0,471 C 192,501 576,645 960,621 C 1344,597 1728,405 1920,351L1920 1080L0 1080z" fill="rgba(213, 255, 251, 1)"></path>
    </g>
    <defs>
        <mask id="SvgjsMask1042">
            <rect width="1920" height="1080" fill="#ffffff"></rect>
        </mask>
    </defs>
</svg>