<svg xmlns="http://www.w3.org/2000/svg" version="1.1" xmlns:xlink="http://www.w3.org/1999/xlink" xmlns:svgjs="http://svgjs.com/svgjs" width="900" height="600" preserveAspectRatio="none" viewBox="0 0 900 600"><g mask="url(&quot;#SvgjsMask1028&quot;)" fill="none"><rect width="900" height="600" x="0" y="0" fill="rgba(59, 6, 96, 1)"></rect><path d="M0,232.088C44.867,230.667,87.958,219.606,127.61,198.565C169.97,176.087,222.064,153.51,235.067,107.351C248.146,60.92,198.009,20.264,191.292,-27.504C184.542,-75.508,221.547,-128.657,196.082,-169.906C170.758,-210.926,114.767,-221.236,67.129,-228.622C23.385,-235.404,-21.523,-228.615,-61.621,-209.861C-98.238,-192.735,-118.653,-156.075,-147.822,-128.088C-180.64,-96.601,-237.394,-80.08,-243.814,-35.055C-250.235,9.979,-196.613,39.782,-177.654,81.132C-158.736,122.391,-167.5,177.425,-132.912,206.815C-97.835,236.621,-46.007,233.545,0,232.088" fill="#26043e"></path><path d="M900 926.6949999999999C967.745 922.171 1040.148 943.54 1098.808 909.351 1158.204 874.733 1182.5729999999999 804.527 1214.274 743.524 1247.659 679.281 1293.166 616.383 1288.603 544.127 1283.914 469.874 1236.877 406.519 1189.378 349.253 1141.0529999999999 290.992 1088.482 224.539 1013.716 212.72000000000003 940.199 201.098 873.78 252.95100000000002 808.705 289.076 755.877 318.402 708.563 354.332 671.985 402.424 637.1510000000001 448.223 609.807 500.219 604.534 557.518 599.408 613.22 631.625 662.6 642.999 717.3679999999999 658.454 791.7860000000001 624.432 889.0930000000001 683.364 937.0930000000001 740.577 983.693 826.374 931.611 900 926.6949999999999" fill="#500882"></path></g><defs><mask id="SvgjsMask1028"><rect width="900" height="600" fill="#ffffff"></rect></mask></defs></svg>